# xmcd
# 
# Track frame offsets:
#     150
#     14917
#     29932
#     48633
#     72954
#     88492
#     104723
#     122845
#     139043
#     154541
#     168801
#     188536
# 
# Disc length: 2744
# 
# Revision: 5
# Processed by: cddbd v1.5.2PL0 Copyright (c) Steve Scherf et al.
# Submitted via: fre:ac v1.0.31
# 
DISCID=b00ab60c
DTITLE=Cowboy Troy - Loco Motive
DYEAR=2005
DGENRE=Country
TTITLE0=I Play Chicken With The Train (with Big and Rich)
TTITLE1=Crick In My Neck
TTITLE2=Ain't Broke Yet (with Big and Rich)
TTITLE3=If You Don't Wanna Love Me (with Sarah Buxton)
TTITLE4=My Last Yee Haw (with Big and Rich)
TTITLE5=El Tejano
TTITLE6=Somebody's Smilin' On Me (with Tim McGraw and Big Kenny)
TTITLE7=Do Your Thang
TTITLE8=Beast On The Mic (with James Otto)
TTITLE9=Whoop Whoop (with Jon Nicholson)
TTITLE10=Automatic (with Atom)
TTITLE11=Wrap Around The World
EXTD=
EXTT0=
EXTT1=
EXTT2=
EXTT3=
EXTT4=
EXTT5=
EXTT6=
EXTT7=
EXTT8=
EXTT9=
EXTT10=
EXTT11=
PLAYORDER=
